#!OML:ASF F:\VICON\USERDATA\INSTALL\rory3\rory3.ASF
:FULLY-SPECIFIED
:DEGREES
350
root 0.422951 17.7972 -19.0312 -0.670761 2.26298 -0.661133
lowerback 8.15495 0.386595 -1.05098
upperback -0.25315 0.515018 2.04461
thorax -4.87023 0.306965 2.65687
lowerneck -15.5475 -4.87182 -9.14567
upperneck 13.3145 -5.78515 7.40015
head 7.1156 -2.60859 3.2757
rclavicle -8.79622e-015 -1.19271e-014
rhumerus -28.947 -7.30251 -79.5576
rradius 36.4329
rwrist 3.93277
rhand -13.8347 10.9478
rfingers 7.12502
rthumb 12.2885 -18.6712
lclavicle -8.79622e-015 -1.19271e-014
lhumerus -34.479 10.3 82.9184
lradius 27.7553
lwrist -3.88813
lhand -20.3486 19.016
lfingers 7.12502
lthumb 6.00327 48.9109
rfemur -9.97676 4.3652 21.0531
rtibia 22.0311
rfoot -21.9024 -15.7163
rtoes 5.08847
lfemur -12.1504 -6.77568 -16.772
ltibia 21.97
lfoot -27.1014 7.21499
ltoes -4.88849
351
root 0.429139 17.796 -19.0442 -0.725019 2.12418 -0.659706
lowerback 8.11914 0.363562 -1.06172
upperback -0.174426 0.486793 2.13615
thorax -4.76732 0.292695 2.76172
lowerneck -15.6572 -4.80753 -9.33803
upperneck 13.2878 -5.64946 7.4458
head 7.12096 -2.54717 3.3365
rclavicle 5.71506e-016 -1.27222e-014
rhumerus -28.9346 -7.24722 -79.5146
rradius 36.1998
rwrist 4.11685
rhand -13.5212 10.973
rfingers 7.12502
rthumb 12.5907 -18.6276
lclavicle 5.71506e-016 -1.27222e-014
lhumerus -34.596 10.0282 83.3334
lradius 28.1898
lwrist -3.60873
lhand -20.5512 19.1525
lfingers 7.12502
lthumb 5.80766 49.053
rfemur -9.98336 4.37818 21.0315
rtibia 22.0468
rfoot -21.9361 -15.7426
rtoes 5.42793
lfemur -12.1423 -6.72839 -16.8
ltibia 22.0472
lfoot -27.2288 7.38382
ltoes -5.37909
352
root 0.433527 17.7927 -19.0561 -0.788832 1.88457 -0.696777
lowerback 8.07634 0.410887 -1.05718
upperback -0.0472794 0.553184 2.2322
thorax -4.61533 0.323905 2.85097
lowerneck -15.9991 -4.80125 -9.44677
upperneck 13.384 -5.58119 7.40305
head 7.20663 -2.51668 3.34408
rclavicle -3.80176e-015 -1.03368e-014
rhumerus -28.8324 -7.2967 -79.4763
rradius 35.9963
rwrist 4.38863
rhand -13.6433 10.6305
rfingers 7.12502
rthumb 12.473 -18.9773
lclavicle -3.80176e-015 -1.03368e-014
lhumerus -34.3328 10.0772 83.6347
lradius 28.1267
lwrist -3.64108
lhand -20.6526 18.6819
lfingers 7.12502
lthumb 5.70975 48.585
rfemur -9.99061 4.46609 21.0707
rtibia 22.0631
rfoot -21.8956 -15.7372
rtoes 4.88432
lfemur -12.1351 -6.61534 -16.7687
ltibia 22.1654
lfoot -27.4722 7.54017
ltoes -4.55509
353
root 0.436871 17.79 -19.0694 -0.862927 1.82768 -0.697705
lowerback 8.15212 0.441859 -1.04061
upperback 0.0258227 0.595219 2.23604
thorax -4.58401 0.343377 2.84029
lowerneck -16.1984 -4.83402 -9.3696
upperneck 13.4848 -5.61444 7.31014
head 7.27139 -2.53272 3.29452
rclavicle 1.57288e-014 2.38542e-015
rhumerus -28.7303 -7.74916 -79.4395
rradius 35.5503
rwrist 4.69471
rhand -13.9375 10.2977
rfingers 7.12502
rthumb 12.1893 -19.3272
lclavicle 1.57288e-014 2.38542e-015
lhumerus -34.0451 9.86827 83.8772
lradius 28.0908
lwrist -3.61594
lhand -20.7184 18.7988
lfingers 7.12502
lthumb 5.64627 48.7035
rfemur -9.95922 4.47451 21.0639
rtibia 22.0626
rfoot -21.8756 -15.7439
rtoes 4.61487
lfemur -12.1479 -6.59525 -16.776
ltibia 22.2686
lfoot -27.6542 7.60961
ltoes -4.10205
354
root 0.434266 17.7882 -19.0879 -0.931988 1.93961 -0.78135
lowerback 8.24687 0.408651 -0.988769
upperback 0.0621497 0.55645 2.25603
thorax -4.59687 0.323028 2.83641
lowerneck -16.169 -4.818 -9.24254
upperneck 13.4318 -5.60973 7.23606
head 7.24262 -2.53093 3.24995
rclavicle -6.38596e-015 -2.38542e-015
rhumerus -28.668 -7.99037 -79.4584
rradius 35.0392
rwrist 4.58333
rhand -13.9932 10.3565
rfingers 7.12502
rthumb 12.1357 -19.2715
lclavicle -6.38596e-015 -2.38542e-015
lhumerus -33.878 9.71856 83.9933
lradius 28.1435
lwrist -3.62407
lhand -20.5733 19.6887
lfingers 7.12502
lthumb 5.78628 49.5897
rfemur -9.91503 4.55245 21.1799
rtibia 22.0413
rfoot -21.8001 -15.954
rtoes 4.70506
lfemur -12.206 -6.58516 -16.6663
ltibia 22.3559
lfoot -27.734 7.49666
ltoes -4.21711
355
root 0.432326 17.7881 -19.105 -0.989675 2.00665 -0.824606
lowerback 8.36656 0.351115 -0.988799
upperback 0.0353821 0.483276 2.31657
thorax -4.68858 0.28868 2.90895
lowerneck -15.969 -4.86128 -9.15888
upperneck 13.2873 -5.66778 7.05385
head 7.15831 -2.57437 3.17098
rclavicle -3.60297e-015 1.90833e-014
rhumerus -28.8078 -7.82913 -79.4597
rradius 34.6796
rwrist 4.30733
rhand -13.9934 10.9808
rfingers 7.12502
rthumb 12.1355 -18.6473
lclavicle -3.60297e-015 1.90833e-014
lhumerus -33.9484 9.63661 84.1266
lradius 28.3276
lwrist -3.4899
lhand -20.448 20.6243
lfingers 7.12502
lthumb 5.9073 50.522
rfemur -9.9021 4.73483 21.2349
rtibia 22.0195
rfoot -21.8461 -16.2733
rtoes 4.72649
lfemur -12.2577 -6.53255 -16.6099
ltibia 22.4097
lfoot -27.7365 7.38273
ltoes -3.98515
356
root 0.435534 17.7886 -19.1198 -1.03779 2.06393 -0.86461
lowerback 8.44973 0.308086 -0.91982
upperback 0.0614241 0.434952 2.36758
thorax -4.70528 0.2637 2.92932
lowerneck -16.0064 -4.92102 -9.11357
upperneck 13.2354 -5.72807 6.90458
head 7.14695 -2.61312 3.10625
rclavicle 8.19987e-015 6.75868e-015
rhumerus -29.0112 -7.7126 -79.4274
rradius 34.6378
rwrist 4.36821
rhand -13.8793 11.3589
rfingers 7.12502
rthumb 12.2455 -18.2626
lclavicle 8.19987e-015 6.75868e-015
lhumerus -33.7743 9.58272 84.2877
lradius 28.3025
lwrist -3.46595
lhand -20.3566 20.6465
lfingers 7.12502
lthumb 5.99553 50.5416
rfemur -9.87612 4.67326 21.2711
rtibia 21.9701
rfoot -21.8868 -16.4668
rtoes 4.97908
lfemur -12.3 -6.4962 -16.5871
ltibia 22.4453
lfoot -27.7451 7.30747
ltoes -4.18498
357
root 0.440723 17.7917 -19.1321 -1.05433 2.06769 -0.942591
lowerback 8.36974 0.304411 -0.767969
upperback 0.173748 0.444491 2.40526
thorax -4.54273 0.26285 2.88079
lowerneck -16.1331 -4.94041 -9.17148
upperneck 13.1913 -5.72921 6.91648
head 7.15643 -2.61289 3.11746
rclavicle 1.2424e-016 1.59028e-014
rhumerus -28.9935 -7.9308 -79.3543
rradius 34.46
rwrist 4.53949
rhand -14.394 10.5569
rfingers 7.12502
rthumb 11.7492 -19.0936
lclavicle 1.2424e-016 1.59028e-014
lhumerus -33.3751 9.56202 84.4429
lradius 28.1308
lwrist -3.54355
lhand -20.4535 20.1266
lfingers 7.12502
lthumb 5.902 50.0244
rfemur -9.85624 4.58731 21.3481
rtibia 21.9225
rfoot -21.8407 -16.4867
rtoes 5.04043
lfemur -12.3592 -6.50269 -16.5139
ltibia 22.4606
lfoot -27.6963 7.21388
ltoes -4.11373
358
root 0.444297 17.7909 -19.1437 -1.19297 2.06388 -1.02164
lowerback 8.38955 0.31676 -0.631987
upperback 0.308633 0.472459 2.4195
thorax -4.41375 0.271649 2.81469
lowerneck -16.1403 -4.98559 -9.15245
upperneck 13.071 -5.78985 6.92204
head 7.1233 -2.64003 3.10849
rclavicle 7.20594e-016 -1.35174e-014
rhumerus -28.9075 -8.23991 -79.3183
rradius 34.1293
rwrist 4.56253
rhand -15.0754 9.91552
rfingers 7.12502
rthumb 11.092 -19.7714
lclavicle 7.20594e-016 -1.35174e-014
lhumerus -33.0274 9.43059 84.5758
lradius 28.0486
lwrist -3.64
lhand -20.4378 19.8406
lfingers 7.12502
lthumb 5.91713 49.7379
rfemur -9.73411 4.62776 21.4278
rtibia 21.9266
rfoot -21.8135 -16.6871
rtoes 4.64382
lfemur -12.2831 -6.51806 -16.4553
ltibia 22.4718
lfoot -27.7128 7.10537
ltoes -3.78009
359
root 0.45197 17.7867 -19.1559 -1.27898 2.10372 -0.939036
lowerback 8.42885 0.288423 -0.590663
upperback 0.354328 0.436143 2.37642
thorax -4.38548 0.251736 2.75057
lowerneck -16.0025 -5.01171 -9.10836
upperneck 12.8688 -5.829 6.86556
head 7.03431 -2.66389 3.07951
rclavicle 8.69683e-015 5.56597e-015
rhumerus -28.9476 -8.38883 -79.3198
rradius 33.9667
rwrist 4.81699
rhand -14.5889 10.166
rfingers 7.12502
rthumb 11.5612 -19.4951
lclavicle 8.69683e-015 5.56597e-015
lhumerus -32.7968 9.33114 84.6482
lradius 27.9908
lwrist -3.70049
lhand -20.3206 20.001
lfingers 7.12502
lthumb 6.03031 49.8952
rfemur -9.69004 4.52144 21.297
rtibia 21.9628
rfoot -21.7924 -16.8636
rtoes 3.89251
lfemur -12.2441 -6.58265 -16.596
ltibia 22.5118
lfoot -27.7468 6.90209
ltoes -3.22201
360
root 0.456542 17.7843 -19.1703 -1.26337 2.18644 -0.860796
lowerback 8.48999 0.264311 -0.604119
upperback 0.334183 0.402809 2.36138
thorax -4.439 0.23596 2.74678
lowerneck -16.0734 -4.98922 -9.15602
upperneck 12.9418 -5.78894 6.89348
head 7.06904 -2.64336 3.10033
rclavicle -5.31749e-015 -5.56597e-015
rhumerus -29.0826 -8.5949 -79.2587
rradius 33.8835
rwrist 5.20802
rhand -14.0413 10.3143
rfingers 7.12502
rthumb 12.0893 -19.3164
lclavicle -5.31749e-015 -5.56597e-015
lhumerus -32.6228 9.34306 84.6984
lradius 27.9264
lwrist -3.84711
lhand -20.077 19.8141
lfingers 7.12502
lthumb 6.26544 49.7015
rfemur -9.77125 4.46453 21.1905
rtibia 22.0312
rfoot -21.7261 -17.0186
rtoes 3.97445
lfemur -12.3455 -6.60413 -16.6966
ltibia 22.5507
lfoot -27.7609 6.69428
ltoes -3.11277
361
root 0.457364 17.7813 -19.1873 -1.30306 2.25278 -0.940216
lowerback 8.60533 0.25635 -0.588328
upperback 0.309106 0.398884 2.4437
thorax -4.53031 0.235564 2.82486
lowerneck -16.1764 -4.78313 -9.40802
upperneck 13.4478 -5.51194 7.17583
head 7.24359 -2.49796 3.2685
rclavicle 1.73937e-015 -2.46493e-014
rhumerus -29.2531 -8.6578 -79.1668
rradius 33.8108
rwrist 5.38235
rhand -14.0419 10.3761
rfingers 7.12502
rthumb 12.0887 -19.2547
lclavicle 1.73937e-015 -2.46493e-014
lhumerus -32.5871 9.19649 84.8648
lradius 28.0541
lwrist -3.68145
lhand -19.9746 19.4344
lfingers 7.12502
lthumb 6.36436 49.3188
rfemur -9.81031 4.43232 21.2825
rtibia 22.1099
rfoot -21.5772 -17.2451
rtoes 3.69862
lfemur -12.3944 -6.6813 -16.6116
ltibia 22.5795
lfoot -27.8653 6.63614
ltoes -3.88984
362
root 0.459691 17.7788 -19.2005 -1.41565 2.28459 -0.856736
lowerback 8.63766 0.267649 -0.712186
upperback 0.371536 0.402132 2.47063
thorax -4.48464 0.23914 2.92246
lowerneck -15.6618 -4.92276 -9.15523
upperneck 12.7731 -5.71666 6.82633
head 6.9362 -2.62238 3.09217
rclavicle -5.06901e-015 -6.36111e-015
rhumerus -29.2368 -8.81796 -79.0787
rradius 33.5551
rwrist 5.58265
rhand -13.8938 10.5803
rfingers 7.12502
rthumb 12.2315 -19.042
lclavicle -5.06901e-015 -6.36111e-015
lhumerus -32.4873 8.90084 85.0632
lradius 28.1879
lwrist -3.26908
lhand -20.153 19.7798
lfingers 7.12502
lthumb 6.19208 49.6693
rfemur -9.77533 4.30063 21.1814
rtibia 22.1835
rfoot -21.5849 -17.2956
rtoes 3.27049
lfemur -12.3049 -6.79875 -16.7401
ltibia 22.5781
lfoot -27.8739 6.60994
ltoes -4.58369
363
root 0.462083 17.7776 -19.2108 -1.52755 2.30766 -0.81485
lowerback 8.63464 0.260497 -0.770097
upperback 0.4846 0.386536 2.50515
thorax -4.36484 0.230806 2.99262
lowerneck -15.7031 -4.92923 -9.17459
upperneck 12.7633 -5.71521 6.81711
head 6.94022 -2.62255 3.0918
rclavicle 1.08338e-014 -2.38542e-015
rhumerus -29.1066 -8.8637 -79.0356
rradius 33.2461
rwrist 5.5254
rhand -13.8169 10.8256
rfingers 7.12502
rthumb 12.3057 -18.7923
lclavicle 1.08338e-014 -2.38542e-015
lhumerus -32.2908 8.79731 85.213
lradius 28.2933
lwrist -2.91085
lhand -20.49 20.069
lfingers 7.12502
lthumb 5.86678 49.9677
rfemur -9.6911 4.268 21.1339
rtibia 22.1978
rfoot -21.692 -17.3791
rtoes 4.22712
lfemur -12.2223 -6.80094 -16.8206
ltibia 22.604
lfoot -27.5134 6.67848
ltoes -6.27786
364
root 0.462058 17.7774 -19.2235 -1.65082 2.26862 -0.823394
lowerback 8.74735 0.25855 -0.848588
upperback 0.438602 0.380936 2.57662
thorax -4.47685 0.231897 3.1133
lowerneck -15.3114 -4.79938 -9.36579
upperneck 12.8164 -5.55654 6.95479
head 6.88722 -2.5522 3.19226
rclavicle 5.09386e-015 2.22639e-014
rhumerus -29.3642 -8.83745 -78.9358
rradius 33.1349
rwrist 5.59258
rhand -13.6559 10.6344
rfingers 7.12502
rthumb 12.4609 -18.9741
lclavicle 5.09386e-015 2.22639e-014
lhumerus -32.5586 8.67289 85.3025
lradius 28.5617
lwrist -2.58646
lhand -20.7245 19.5417
lfingers 7.12502
lthumb 5.64039 49.4466
rfemur -9.61324 4.48126 21.1644
rtibia 22.2155
rfoot -21.7787 -17.5784
rtoes 5.38399
lfemur -12.1375 -6.82245 -16.8119
ltibia 22.615
lfoot -26.8723 6.84467
ltoes -8.13501
